<svg width="679" height="251" viewBox="0 0 679 251" fill="none" xmlns="http://www.w3.org/2000/svg">
<path d="M174.101 218H144.801V248H174.101V218Z" fill="#CFD600"/>
<path d="M44.3 113.7C37.3 113.7 33.5 117.5 33.5 122.8C33.5 125.6 34.2 128 35.9 129.8C37.6 131.9 40.4 132.6 44.3 132.6C48.1 132.6 50.2 131.6 52.7 129.5V132.3H59V111C59 104 54.8 100.2 46.1 100.2C40.9 100.2 38.1 101.2 34.9 104.7L39.1 108.5C40.8 106.4 42.6 105.4 45.7 105.4C50.6 105.4 52.3 107.1 52.3 111.3V113.4L44.3 113.7ZM52.7 120.7C52.7 122.8 52.4 124.5 51.3 125.2C49.6 126.6 47.8 126.9 45.7 126.9C41.5 126.9 39.8 125.5 39.8 122.4C39.8 119.3 41.5 117.9 45.4 117.9H52.4L52.7 120.7Z" fill="#0F172A"/>
<path d="M68.4004 87.5V132.2H74.7003V128.7C77.1003 131.5 79.6003 132.5 82.7003 132.5C85.8003 132.5 88.6004 131.5 90.4004 129.7C93.5004 126.6 93.9004 121.3 93.9004 116.1C93.9004 110.9 93.6004 106 90.4004 102.8C88.7004 101.1 85.9003 100 82.7003 100C79.6003 100 76.8003 100.7 74.7003 103.5V87.5H68.4004ZM80.9004 105.6C86.5004 105.6 87.2003 110.5 87.2003 116.1C87.2003 121.7 86.5004 126.6 80.9004 126.6C75.3004 126.6 74.3004 121.7 74.3004 116.1C74.7004 110.5 75.3004 105.6 80.9004 105.6Z" fill="#0F172A"/>
<path d="M26.9 142.6C24.1 139.8 20.3 138.1 15.7 138.1C11.2 138.1 7.3 139.8 4.5 142.6C0.3 147.1 0 151.3 0 160.7C0 170.1 0 174.7 4.5 178.8C7.3 181.6 11.1 183.3 15.7 183.3C19.2 183.3 22.3 182.3 24.8 180.5L29 185L32.5 181.2L28.3 177C31.1 173.2 31.1 168.6 31.1 160.6C31.4 151.7 31 147.2 26.9 142.6ZM23.4 171.9L19.2 167.4L15.4 171.2L19.9 175.7C18.5 176.7 17.1 177.1 15.4 177.1C12.6 177.1 10.5 176.1 8.80005 174.3C6.70005 171.9 6.40002 169.4 6.40002 160.3C6.40002 151.2 6.70005 148.8 8.80005 146.3C10.5 144.6 12.6 143.5 15.4 143.5C18.2 143.5 20.3 144.5 22 146.3C24.1 148.7 24.4 151.5 24.4 160.3C24.8 166.7 24.8 169.5 23.4 171.9Z" fill="#0F172A"/>
<path d="M65.2 183.1V151.4H58.9V170.9C58.9 175.8 56.1 177.9 52.6 177.9C49.1 177.9 46.3 175.8 46.3 170.9V151.4H40V171.6C40 175.1 40.7 178.2 43.1 180.7C44.8 182.4 47.6 183.5 50.8 183.5C53.9 183.5 57.1 182.5 59.2 180V183.1H65.2Z" fill="#0F172A"/>
<path d="M99.7993 166.4C99.7993 157 94.8993 151 86.4993 151C78.0993 151 73.1992 156.9 73.1992 167.4C73.1992 179.6 79.4992 183.8 87.1992 183.8C92.7992 183.8 95.5992 182.1 98.6992 178.9L94.8993 175.1C92.7993 177.2 90.6992 178.2 87.1992 178.2C81.9992 178.2 79.1992 174.7 79.1992 169.1H99.3993L99.7993 166.4ZM79.4993 164.6C79.4993 162.5 79.7992 161.8 80.1992 160.4C81.1992 158 83.2993 156.6 86.4993 156.6C89.6993 156.6 91.6993 158.3 92.7993 160.4C93.4993 161.8 93.4993 162.8 93.4993 164.6H79.4993Z" fill="#0F172A"/>
<path d="M117.9 178.2C114.8 178.2 111.6 177.5 108.8 174.7L104.6 178.9C108.4 182.7 112.6 183.4 117.5 183.4C124.8 183.4 130.4 179.9 130.4 173.3C130.4 167.7 126.9 164.9 120.6 164.2L116.4 163.9C113.3 163.6 112.2 162.5 112.2 160.4C112.2 158 113.9 156.2 117.8 156.2C120.6 156.2 123.4 156.9 125.5 158.6L129.3 154.4C126.5 152 122.7 150.9 117.8 150.9C111.2 150.9 106.3 154.4 106.3 160.7C106.3 166.3 109.4 169.1 115.4 169.4L120.3 169.7C123.4 170 124.5 171.1 124.5 173.5C124.9 176.8 121.7 178.2 117.9 178.2Z" fill="#0F172A"/>
<path d="M150.7 156.2V151.3H144.8V142.2V70H1.40039V87.1V131.8H29.0004V125.9H8.10034V87.5V77H138.5V143V151.7H135V156.6H138.5V174.7C138.5 179.2 141.3 183.4 146.9 183.4H150.7V177.8H148.3C145.9 177.8 144.8 176.4 144.8 174V156.2H150.7Z" fill="#0F172A"/>
<path d="M138.5 211.4H8.00037V187.7H1.40039V218H1.70032H8.00037H138.5H144.8V211.4V187.7H138.5V211.4Z" fill="#0F172A"/>
<path d="M238.599 189.7V122.4H219.399V146.1C219.399 154.5 219.099 161.8 217.999 167.4C216.899 173 215.599 177.5 213.499 180.7C211.399 183.8 208.999 186.3 205.799 187.7C202.699 189.1 199.199 189.8 194.999 189.8H188.699V175.5H190.799C192.899 175.5 194.599 175.2 196.399 174.5C198.099 173.8 199.499 172.4 200.599 170C201.999 167.9 202.699 164.8 203.399 160.9C204.099 157.1 204.399 151.8 204.399 145.5V108.5H253.899V189.8H238.599V189.7Z" fill="#0F172A"/>
<path d="M301.1 189.7V184.5C299.7 185.9 298.7 186.6 298 187.3C297.3 188 296.3 188.3 295.2 188.7C293.1 189.7 290.3 190.1 286.8 190.1C280.5 190.1 275.6 188.4 272.1 185.2C268.6 182 266.9 177.5 266.9 171.6C266.9 166.4 268.6 161.8 272.1 158.7C275.6 155.6 280.5 154.2 286.8 154.2H300.4V151C300.4 147.5 299.7 145.4 298 143.7C296.3 142.3 293.5 141.6 289.6 141.6C288.2 141.6 287.2 141.6 286.1 141.9C285.1 141.9 284.4 142.2 283.3 142.6C282.6 142.9 281.6 143.6 280.9 144C280.2 144.7 279.5 145.4 278.5 146.4L269.1 137C269.8 136.3 270.5 135.6 271.2 134.9C271.9 134.2 272.6 133.9 272.9 133.2C273.6 132.9 273.9 132.5 274.6 132.2C275.3 131.9 276 131.5 276.7 131.2C279.8 129.8 284.4 129.1 289.6 129.1C306.3 129.1 314.7 136.1 314.7 150V189L301.1 189.7ZM289.2 164.3C286.8 164.3 284.7 165 283.3 166C281.9 167 281.2 168.8 281.2 170.9C281.2 175.4 284.3 177.9 290.3 177.9C294.1 177.9 296.9 177.2 298.3 175.5C300 173.8 300.7 171.3 300.7 167.5V164.4H289.2V164.3Z" fill="#0F172A"/>
<path d="M354.101 190.1C349.901 190.1 345.701 189.4 342.201 188C338.701 186.6 335.901 184.2 333.801 181C332.101 178.2 331.001 174.4 330.301 169.8C329.601 165.3 329.301 160.4 329.301 154.8C329.301 147.8 329.301 142.2 329.601 137.7C329.901 133.2 330.301 129.3 331.001 126.5C331.701 123.4 332.701 121.3 333.801 119.5C334.801 117.8 336.601 116 338.301 114.6C340.001 113.2 342.101 112.2 344.201 111.1C346.301 110 349.101 109.7 351.901 109C354.701 108.7 357.801 108.3 361.301 108C364.801 107.7 368.601 107.7 373.201 107.7V120.6C371.501 120.6 369.401 120.9 367.301 120.9C365.201 120.9 363.101 120.9 361.001 121.2C358.901 121.5 356.801 121.5 354.701 121.9C352.601 122.3 350.901 122.9 349.101 124C346.301 125.4 344.601 127.1 343.501 129.2C342.401 131.3 341.801 134.1 341.801 137.6C342.801 135.5 344.901 134.1 347.401 132.7C350.201 131.3 353.001 130.6 356.101 130.6C359.601 130.6 362.701 130.9 364.801 132C366.901 132.7 368.601 134.1 370.401 135.5C372.801 137.9 374.901 141.4 376.001 145.6C377.001 149.8 377.701 154.7 377.701 159.6C377.701 165.5 377.001 170.4 376.001 173.9C375.001 177.4 373.201 180.9 370.401 183.3C368.301 185.4 365.901 187.1 362.701 188.5C360.701 189.7 357.601 190.4 354.101 190.1ZM354.101 176.8C355.501 176.8 356.901 176.5 357.901 176.1C358.901 175.8 360.001 175.1 361.001 173.7C363.101 171.3 364.101 166.4 364.101 159.7C364.101 152.7 363.101 148.5 361.301 146.1C360.601 145.1 359.601 144 358.201 143.7C356.801 143.4 355.801 143 354.001 143C352.201 143 351.201 143.3 349.801 143.7C348.401 144 347.401 145.1 346.701 146.1C345.701 147.1 345.001 148.9 344.601 151.3C343.901 153.4 343.901 156.2 343.901 159.7C343.901 163.2 344.201 166.3 344.601 168.8C345.301 171.2 346.001 173 347.001 174C347.701 175 348.701 175.7 350.101 176.1C351.301 176.8 352.701 176.8 354.101 176.8Z" fill="#0F172A"/>
<path d="M393.199 189.7V108.4H408.599V147.1L434.099 108.4H452.599L426.099 146.4L455.399 189.7H436.599L408.699 147.1V189.7H393.199Z" fill="#0F172A"/>
<path d="M510.699 172.3C510.699 177.5 508.999 181.7 505.799 184.9C502.699 188 498.099 189.4 492.899 189.4H463.199V129.7H491.799C497.399 129.7 501.599 131.1 505.099 134.2C508.199 137 509.999 141.2 509.999 146.1C509.999 151.7 507.599 155.9 502.699 158.7C505.499 160.1 507.599 162.2 508.999 164.3C509.999 166.4 510.699 169.1 510.699 172.3ZM477.599 140.9V153.5H488.399C492.899 153.5 495.399 151.4 495.399 147.2C495.399 143 492.999 140.9 488.399 140.9H477.599ZM496.399 171.6C496.399 169.5 495.699 167.8 494.699 166.4C493.299 165.4 491.599 164.7 489.499 164.7H477.999V178.7H489.499C491.899 178.7 493.699 178 494.699 177C495.699 175.4 496.399 173.7 496.399 171.6Z" fill="#0F172A"/>
<path d="M535.9 164.3C536.2 173 540.8 177.6 549.2 177.6C551.6 177.6 553.7 177.3 555.8 176.2C556.8 175.9 557.9 175.2 558.6 174.8C559.3 174.1 560.3 173.4 561.7 172L570.4 180.7C569.4 181.7 568.3 182.8 567.6 183.5C566.9 184.2 565.9 184.9 565.2 185.2C564.5 185.9 563.8 186.2 562.8 186.6C562.1 186.9 561.1 187.3 560.4 187.6C558.7 188.3 556.9 188.6 554.8 189.3C552.7 189.6 550.6 190 548.5 190C530.7 190 521.6 179.9 521.6 159.3C521.6 154.8 522.3 150.6 523.3 146.7C524.3 142.9 526.1 139.7 528.2 137.3C530.3 134.9 533.1 132.8 536.2 131.4C539.3 130 542.8 129.3 546.7 129.3C550.6 129.3 554 130 557.2 131.4C560.3 132.8 563.1 134.5 565.2 137C567.3 139.5 569 142.6 570.4 146.1C571.4 149.6 572.1 153.4 572.1 158V164.6H535.8V164.3H535.9ZM558.2 154.1C557.9 149.9 556.8 146.8 555.1 144.7C553.4 142.6 550.6 141.6 547.1 141.6C543.6 141.6 541.2 142.6 539.1 144.7C537 146.8 536 149.9 536 154.1H558.2Z" fill="#0F172A"/>
<path d="M628 182.1C626.3 183.8 624.9 185.2 623.8 185.9C622.8 186.6 621.4 187.3 620 188C616.9 189.4 613.4 190.1 609.2 190.1C600.8 190.1 594.5 187.3 590 182.1C585.5 176.9 583.4 169.2 583.4 159.1C583.4 149.7 585.8 142.4 590.4 137.1C594.9 131.9 601.2 129.1 609.6 129.1C613.8 129.1 617.3 129.8 620.4 131.2C621.8 131.9 623.2 132.6 624.2 133.3C625.2 134 626.6 135.4 628.4 137.1L618.6 147.2C616.9 145.5 615.5 144.1 614.1 143.7C612.7 143 611.3 142.7 609.2 142.7C601.5 142.7 597.7 148.3 597.7 159.8C597.7 171.3 601.5 176.9 609.2 176.9C611.3 176.9 612.7 176.6 614.1 175.9C615.5 175.2 616.9 174.2 618.6 172.4L628 182.1Z" fill="#0F172A"/>
<path d="M662.499 143.3V189.7H647.799V143.3H630.699V130H678.799V143.3H662.499Z" fill="#0F172A"/>
<path d="M219.099 244.5H216.299V222.2H207.899V230.6C207.899 241.1 205.499 244.6 200.599 244.6H199.199V242.2H199.899C202.999 242.2 205.099 240.1 205.099 229.6V219.5H218.699L219.099 244.5ZM245.899 244.5H243.099L240.999 238.9H230.199L228.099 244.5H225.299L234.399 219.7H236.499L245.899 244.5ZM240.399 236.8L235.899 223.5L231.399 236.8H240.399ZM269.299 237.2C269.299 241.4 266.199 244.5 261.599 244.5H252.199V219.7H267.599V222.1H254.699V229.8H261.299C266.199 229.8 269.299 233 269.299 237.2ZM266.499 237.2C266.499 234.1 264.399 232.3 261.299 232.3H254.699V242.1H261.299C264.399 242.1 266.499 240.3 266.499 237.2ZM293.699 232.3C293.699 237.9 293.399 240 291.299 242.4C289.899 243.8 287.799 244.8 284.999 244.8C282.599 244.8 280.499 243.8 278.699 242.4C276.299 240 276.299 237.9 276.299 232.3C276.299 226.7 276.299 224.6 278.699 222.2C280.099 220.8 282.199 219.8 284.999 219.8C287.399 219.8 289.499 220.8 291.299 222.2C293.699 224.3 293.699 226.4 293.699 232.3ZM290.999 232.3C290.999 227.1 290.699 225.3 289.299 223.9C288.299 222.9 286.499 222.2 285.099 222.2C283.399 222.2 281.999 222.9 280.899 223.9C279.499 225.6 279.199 227.4 279.199 232.3C279.199 237.5 279.499 239.3 280.899 240.7C281.899 241.7 283.699 242.4 285.099 242.4C286.799 242.4 288.199 241.7 289.299 240.7C290.999 238.9 290.999 237.2 290.999 232.3ZM319.199 227.1C319.199 231.6 316.099 234.4 311.499 234.4H304.899V244.5H302.099V219.7H311.199C316.099 219.7 319.199 222.5 319.199 227.1ZM316.799 227.1C316.799 224 314.699 222.2 311.599 222.2H305.299V232H311.599C314.699 231.9 316.799 230.2 316.799 227.1ZM342.599 244.5H339.799L337.699 238.9H326.899L324.799 244.5H321.999L331.099 219.7H333.199L342.599 244.5ZM336.999 236.8L332.499 223.5L327.999 236.8H336.999ZM361.399 222.2H354.099V244.5H351.299V222.2H343.999V219.8H361.099V222.2H361.399ZM384.099 232.3C384.099 237.9 383.799 240 381.699 242.4C380.299 243.8 378.199 244.8 375.399 244.8C372.599 244.8 370.899 243.8 369.099 242.4C366.699 240 366.699 237.9 366.699 232.3C366.699 226.7 366.699 224.6 369.099 222.2C370.499 220.8 372.599 219.8 375.399 219.8C378.199 219.8 379.899 220.8 381.699 222.2C384.099 224.3 384.099 226.4 384.099 232.3ZM381.299 232.3C381.299 227.1 380.999 225.3 379.599 223.9C378.599 222.9 376.799 222.2 375.399 222.2C373.999 222.2 372.299 222.9 371.199 223.9C369.499 225.6 369.499 227.4 369.499 232.3C369.499 237.5 369.499 239.3 371.199 240.7C372.199 241.7 373.999 242.4 375.399 242.4C376.799 242.4 378.499 241.7 379.599 240.7C381.299 238.9 381.299 237.2 381.299 232.3ZM409.599 227.1C409.599 231.6 406.499 234.4 401.899 234.4H395.299V244.5H392.499V219.7H401.599C406.399 219.7 409.599 222.5 409.599 227.1ZM407.099 227.1C407.099 224 404.999 222.2 401.899 222.2H395.599V232H401.899C404.999 231.9 407.099 230.2 407.099 227.1ZM434.999 244.5H432.199V224.3L419.599 244.5H417.199V219.7H419.999V240L432.599 219.8H434.999V244.5ZM451.399 234.4L446.199 244.5H443.099L448.699 234C445.599 233.3 443.499 230.5 443.499 227C443.499 222.5 446.599 219.7 451.199 219.7H460.299V244.5H457.499V234.4H451.399ZM457.699 231.9V222.1H451.399C447.899 222.1 446.199 223.8 446.199 227C446.199 230.2 448.299 231.9 451.399 231.9H457.699ZM498.199 237.2C498.199 241.4 495.099 244.5 490.499 244.5H481.099V219.7H496.499V222.1H483.499V229.8H490.099C494.999 229.8 498.199 233 498.199 237.2ZM495.399 237.2C495.399 234.1 493.699 232.3 490.199 232.3H483.599V242.1H490.199C493.599 242.1 495.399 240.3 495.399 237.2ZM520.499 219.7L511.399 240.6C510.399 243 508.999 244.4 506.499 244.4H504.399V242H505.799C507.499 242 508.199 241.3 508.899 239.6L509.899 237.2L501.499 219.4H504.299L510.899 234.1L516.799 219.4L520.499 219.7ZM522.299 242.1H524.399C526.799 238.6 527.499 234.1 527.499 228.1V219.7H541.099V242H544.199V250.4H541.399V244.5H524.699V250.4H521.899L522.299 242.1ZM527.499 242.1H538.699V221.9H530.299V229.6C530.299 234.4 529.599 238.6 527.499 242.1ZM566.599 219.7L557.499 240.6C556.499 243 555.099 244.4 552.599 244.4H550.499V242H551.899C553.599 242 554.299 241.3 554.999 239.6L555.999 237.2L547.599 219.4H550.399L556.999 234.1L562.899 219.4L566.599 219.7ZM603.199 250.4H600.399V244.5H572.499V219.7H575.299V242H585.099V219.7H587.899V242H597.699V219.7H600.499V242H603.299V250.4H603.199ZM626.199 244.5H610.799V219.7H626.199V222.1H613.299V230.8H624.099V233.2H613.299V242.3H626.199V244.5ZM649.199 222.2H636.999V244.5H634.199V219.7H649.199V222.2ZM672.999 232.3C672.999 237.9 672.999 240 670.599 242.4C669.199 243.8 667.099 244.8 664.299 244.8C661.499 244.8 659.799 243.8 657.999 242.4C655.599 240 655.599 237.9 655.599 232.3C655.599 226.7 655.599 224.6 657.999 222.2C659.399 220.8 661.499 219.8 664.299 219.8C667.099 219.8 668.799 220.8 670.599 222.2C672.599 224.3 672.999 226.4 672.999 232.3ZM670.199 232.3C670.199 227.1 669.899 225.3 668.499 223.9C667.499 222.9 665.699 222.2 664.299 222.2C662.599 222.2 661.199 222.9 660.099 223.9C658.699 225.6 658.399 227.4 658.399 232.3C658.399 237.5 658.699 239.3 660.099 240.7C661.099 241.7 662.899 242.4 664.299 242.4C665.999 242.4 667.399 241.7 668.499 240.7C670.199 238.9 670.199 237.2 670.199 232.3Z" fill="#0F172A"/>
<path d="M41.4655 55.7341C41.4655 55.7341 90.6534 -6.68849 125.945 0.59047C142.268 3.89909 148.444 21.7656 175.795 68.9685C181.751 79.3355 152.414 65.4393 145.135 59.7044C145.135 59.7044 150.87 83.5264 146.459 86.1733C138.518 91.026 35.2894 65.6599 41.4655 55.7341Z" fill="black"/>
<path d="M45.6581 54.6306C45.6581 54.6306 93.0814 -4.04212 124.844 2.57511C141.167 5.88373 142.931 19.5593 173.37 67.8651C179.767 78.0115 149.107 60.8068 141.828 54.8513C141.828 54.8513 148.225 81.7613 143.814 84.1876C135.652 89.2609 39.2614 64.5565 45.6581 54.6306Z" fill="#FF0000"/>
<path d="M147.562 59.0426C140.944 53.3077 138.959 48.6756 132.562 35C132.562 35 141.827 57.4986 143.15 62.7924C144.474 68.0862 142.709 57.9398 144.033 58.1604C145.577 58.1604 148.223 59.7043 147.562 59.0426Z" fill="black"/>
<path d="M132.785 35C132.785 35 156.828 65.4392 167.856 67.4244C167.856 67.4244 166.754 68.5273 166.312 68.9684C166.092 69.4096 151.534 65.6599 143.152 54.8518C139.402 50.4403 134.991 39.8526 132.785 35Z" fill="#BA0808"/>
<path d="M127.49 36.1025C127.49 36.1025 134.549 41.3962 141.607 57.9393C144.254 63.6743 138.519 42.4992 127.49 36.1025Z" fill="black"/>
<path d="M141.69 105.012C139.91 105.754 137.836 105.547 135.301 103.867L135.296 103.863C135.283 103.85 135.266 103.835 135.245 103.816C135.229 103.801 135.211 103.785 135.19 103.766C135.096 103.683 134.957 103.561 134.768 103.405C134.39 103.092 133.816 102.64 133.022 102.075C131.434 100.944 128.967 99.3602 125.431 97.53C118.36 93.8695 107.016 89.2241 89.8859 85.2454C71.7845 80.9408 59.579 78.9519 51.8917 78.0394C48.0478 77.5831 45.333 77.3958 43.575 77.3229C42.696 77.2864 42.0561 77.2785 41.6339 77.2798C41.4227 77.2804 41.266 77.2834 41.161 77.2863C41.1084 77.2877 41.0688 77.2891 41.0418 77.2902L41.0107 77.2915L41.0022 77.2919L40.9996 77.292L40.9988 77.2921C40.9985 77.2921 40.9983 77.2921 41.0245 77.7914L40.9983 77.2921L40.9906 77.2925L40.983 77.2931C38.4377 77.5052 36.416 76.8653 35.1246 75.8778C33.8302 74.8879 33.2956 73.5833 33.5711 72.3895L33.575 72.3727L33.5777 72.3556L35.1195 62.6655C35.7678 59.7571 36.7769 57.8346 38.3193 56.4979C39.8708 55.1532 42.0223 54.3477 45.0688 53.8024L49.5262 53.2676C49.4848 53.3404 49.444 53.4145 49.4051 53.4884C49.2692 53.7466 49.1149 54.0767 49.0821 54.3555C49.0673 54.4811 49.0562 54.7655 49.2824 54.9755C49.5174 55.1937 49.8136 55.155 49.9688 55.1162L49.9832 55.1125L49.9974 55.1081C53.7807 53.919 59.3418 53.422 65.4972 53.5594C70.9935 53.682 76.9298 54.3097 82.4386 55.3826L77.7169 56.7991L77.8606 57.778C82.2352 57.778 89.154 58.4356 96.0582 59.5909C102.411 60.654 108.701 62.1302 112.967 63.8803L108.111 65.8585L108.256 66.8194L108.256 66.8196L108.256 66.8196L108.258 66.8197L108.265 66.8204L108.296 66.8233C108.324 66.8259 108.366 66.83 108.421 66.8356C108.532 66.8469 108.698 66.8646 108.915 66.8897C109.349 66.94 109.986 67.0203 110.798 67.1401C112.421 67.3798 114.738 67.7773 117.508 68.4082C122.712 69.5932 129.504 71.5989 136.298 74.9213C135.962 74.9329 135.597 74.9412 135.228 74.9479C134.989 74.9522 134.748 74.9559 134.515 74.9595C134.019 74.9671 133.557 74.9741 133.218 74.986C132.982 74.9942 132.76 75.0057 132.63 75.0299L132.629 75.0301C132.603 75.0348 132.525 75.0494 132.446 75.0901L132.446 75.0902C132.417 75.1049 132.288 75.1717 132.214 75.3298C132.17 75.424 132.153 75.5357 132.177 75.6491C132.2 75.7545 132.25 75.8297 132.289 75.8748C132.359 75.956 132.437 75.9949 132.462 76.007C132.497 76.0242 132.53 76.0356 132.552 76.0426C132.591 76.055 132.631 76.0647 132.669 76.0725C135.889 76.9335 140.004 78.8752 145.235 82.7922C147.517 85.405 148.563 87.0488 149.024 88.2789C149.467 89.4592 149.384 90.2829 149.277 91.3509L149.275 91.3676L146.66 99.8671C145.142 102.458 143.511 104.253 141.69 105.012ZM132.813 76.013C132.814 76.0129 132.815 76.0127 132.816 76.0125C132.811 76.0135 132.809 76.0139 132.809 76.0139C132.809 76.0139 132.81 76.0135 132.813 76.013Z" fill="black" stroke="black"/>
<path d="M138.958 103.599C138.076 103.378 137.194 103.158 136.091 102.496C135.209 101.834 133.003 99.1875 124.18 95.2172C123.518 94.9966 126.386 95.2172 126.386 95.2172C121.092 93.6732 110.063 89.2617 102.564 87.0559C100.799 86.6148 107.196 86.8354 105.431 86.3942C103.225 85.7325 92.6379 84.409 90.2115 83.7473C80.5063 81.5416 64.8455 79.5564 59.3311 75.586C58.6694 75.1449 61.9781 78.0123 61.0958 77.7918C53.5963 76.4683 48.3024 76.0273 45.2143 75.8067C42.1263 75.8067 41.0233 74.042 41.0233 74.4832C41.4645 75.8066 41.0233 75.8067 41.0233 75.8067C40.3616 75.8067 39.4793 75.8067 38.8176 75.8067C37.2736 75.5861 35.9502 74.9243 35.2885 74.042C35.0679 73.6008 34.8474 73.1597 35.0679 72.7186L36.6119 63.0133C37.4941 58.1606 40.5824 55.5138 47.8614 54.8521L46.3172 57.0579C54.2579 55.0727 59.1105 52.6463 77.1976 55.7343C76.7565 56.1755 72.5656 58.6018 72.5656 58.6018C72.5656 58.6018 88.2265 59.043 109.622 64.778C109.402 64.9985 105.652 66.9837 105.652 66.9837C105.652 66.9837 114.034 68.7482 115.137 68.9688C120.871 69.8511 127.709 72.4981 132.121 74.7038C130.136 74.7038 129.253 75.3654 129.253 75.586C129.253 75.586 131.459 76.4684 132.783 76.9096C136.973 78.6741 149.325 84.8501 148.002 91.6879L145.355 99.8492C142.267 104.261 139.62 103.82 138.958 103.599Z" fill="white"/>
<path d="M143.59 101.392C141.385 104.039 139.62 103.819 138.958 103.598C138.076 103.378 137.194 103.157 136.091 102.495C135.209 101.834 133.003 99.1867 124.18 95.2163C123.518 94.9957 126.386 95.2163 126.386 95.2163C121.092 93.6723 110.063 89.2608 102.564 87.055C100.799 86.6139 107.196 86.8345 105.431 86.3933C103.225 85.7316 92.6379 84.4081 90.2115 83.7464C80.5063 81.5407 64.8455 79.5555 59.3311 75.5851C58.6694 75.144 61.9781 78.0115 61.0958 77.7909C53.5963 76.4674 48.3024 76.0264 45.2143 75.8058C42.1263 75.8058 41.0233 74.0411 41.0233 74.4823C41.4645 75.8057 41.0233 75.8058 41.0233 75.8058C40.3616 75.8058 39.4793 75.8058 38.8176 75.8058C37.2736 75.5852 35.9502 74.9234 35.2885 74.0411C35.0679 73.5999 34.8474 73.1589 35.0679 72.7177L36.6119 63.0124C37.2736 59.7038 39.0384 57.4981 42.347 55.9541C41.2441 56.6158 38.5971 58.1597 38.3766 61.9095L37.2737 69.6296C37.2737 70.9531 37.7149 71.6149 38.156 72.056C39.2589 73.3795 40.803 73.3795 42.347 73.6001C43.0087 73.6001 43.6704 73.8206 44.5527 73.6001C44.5527 73.6001 45.2145 73.8205 44.5527 72.2765C44.3322 72.056 45.6554 73.6001 48.7434 73.6001C51.8315 73.6001 57.1254 74.2617 64.625 75.5851C65.5073 75.8057 62.1985 72.7177 62.8603 73.3794C68.3746 77.3497 84.0354 79.3349 93.7407 81.5407C96.167 82.2024 107.637 84.8493 109.843 85.2905C111.828 85.7316 105.872 86.1727 107.637 86.6139C114.916 88.8196 125.283 91.9077 130.577 93.4518C130.577 93.4518 127.489 93.4516 128.15 93.8928C136.973 98.0837 138.959 99.4073 139.62 100.069C140.723 100.731 141.605 101.172 142.488 101.172C142.488 101.392 142.929 101.392 143.59 101.392Z" fill="#E5E5E5"/>
<path d="M166.09 86.8353C164.546 85.2913 155.723 78.4535 161.017 68.0865C162.561 64.9985 166.531 61.4692 168.957 60.1457C169.178 59.9252 166.531 64.3367 168.296 63.4544C173.81 60.3663 181.972 58.1607 186.824 60.3664C187.265 60.587 182.854 62.1309 183.074 62.3515C183.736 62.5721 191.015 66.3218 193 73.3802C193 73.3802 191.456 71.8362 190.133 73.1597C189.471 74.042 191.677 77.13 189.03 84.1884C187.706 87.497 183.515 92.5702 179.986 92.5702C179.986 92.5702 180.648 89.7028 179.986 89.7028C171.163 91.9085 163.443 89.7027 162.782 88.3792C163.223 88.1587 166.972 87.7176 166.09 86.8353Z" fill="black"/>
<path d="M167.192 88.158C167.633 88.158 168.516 87.9375 168.074 87.0552C167.413 85.9523 157.266 79.7762 163.001 68.968C163.883 67.424 166.31 64.336 166.089 64.9977C165.869 65.6594 165.648 68.0858 167.192 66.5418C170.721 63.2332 178.221 60.3657 182.412 61.0274C182.412 61.248 180.868 61.6892 181.088 62.5715C181.309 63.2332 187.926 64.9977 191.676 71.615C190.352 70.5121 189.029 71.615 189.029 72.0561C188.808 74.703 190.132 77.3499 188.367 82.4232C187.264 85.2906 184.838 88.8198 182.853 89.7021C182.632 89.2609 183.294 87.4963 182.191 86.1728C181.97 85.9522 182.191 86.8346 180.427 87.7169C174.03 91.0255 167.413 88.3786 167.192 88.158Z" fill="white"/>
<path d="M189.029 79.7761C188.809 80.6584 188.588 81.7611 188.147 82.864C187.044 85.5109 184.618 89.2608 182.632 90.1431C182.412 89.7019 182.632 87.7167 182.191 86.6138C182.191 86.3932 181.75 87.055 179.985 87.9373C173.589 91.246 166.971 88.599 166.751 88.3784C167.192 88.3784 168.074 88.1578 167.633 87.2755C166.972 86.3932 157.928 80.4377 161.898 70.7324C160.575 78.6731 167.854 83.3052 168.516 84.1875C168.957 85.0698 168.074 85.2904 167.633 85.2904C167.854 85.511 174.471 88.3784 180.868 84.8492C182.632 83.9669 182.412 83.0846 182.632 83.3052C183.294 84.1875 183.515 86.3933 183.294 86.8345C185.5 86.1727 187.926 82.4229 189.029 79.7761Z" fill="#E5E5E5"/>
</svg>
