<?xml version="1.0" encoding="utf-8"?>
<!-- Generator: Adobe Illustrator 28.0.0, SVG Export Plug-In . SVG Version: 6.00 Build 0)  -->
<svg version="1.1" id="Слой_1" xmlns="http://www.w3.org/2000/svg" xmlns:xlink="http://www.w3.org/1999/xlink" x="0px" y="0px"
	 viewBox="0 0 1000 618.1" style="enable-background:new 0 0 1000 618.1;" xml:space="preserve">
<style type="text/css">
	.st0{fill:#FF5F00;}
	.st1{fill:#EB001B;}
	.st2{fill:#F79E1B;}
</style>
<g id="XMLID_23_">
	<rect x="364.8" y="66.1" class="st0" width="270.4" height="485.9"/>
	<path id="XMLID_35_" class="st1" d="M382,309c0-98.6,46.2-186.4,118-243C447.4,24.7,381.1,0,309,0C138.4,0,0,138.4,0,309
		c0,170.7,138.4,309,309,309c72.1,0,138.4-24.7,191-66.1C428.1,495.4,382,407.6,382,309z"/>
	<path class="st2" d="M1000,309c0,170.7-138.4,309-309,309c-72.1,0-138.4-24.7-191-66.1c71.9-56.6,118-144.4,118-243
		s-46.2-186.4-118-243C552.6,24.7,618.9,0,691,0C861.6,0,1000,138.4,1000,309z"/>
</g>
</svg>
