<svg width="24" height="24" viewBox="0 0 24 24" fill="none" xmlns="http://www.w3.org/2000/svg">
<g id="Percent icon">
<path id="Vector" d="M21.1502 16.42L18.6902 17.75C18.4002 17.91 18.1602 18.16 18.0102 18.46L16.7702 20.97C16.4202 21.68 15.6102 22.03 14.8502 21.81L12.1702 21.01C11.8502 20.91 11.5102 20.92 11.1902 21.03L8.54022 21.92C7.79022 22.17 6.97022 21.85 6.59022 21.15L5.26022 18.69C5.10022 18.4 4.85022 18.16 4.55022 18.01L2.04022 16.77C1.33022 16.42 0.980219 15.61 1.20022 14.85L2.00022 12.17C2.10022 11.85 2.09022 11.51 1.98022 11.19L1.09022 8.52997C0.840219 7.77997 1.16022 6.95997 1.86022 6.57997L4.32022 5.24997C4.61022 5.08997 4.85022 4.83997 5.00022 4.53997L6.24022 2.02997C6.59022 1.32997 7.40022 0.969975 8.16022 1.19997L10.8402 1.99997C11.1602 2.09997 11.5002 2.08997 11.8202 1.97997L14.4702 1.08997C15.2202 0.839975 16.0402 1.15997 16.4202 1.85997L17.7502 4.31997C17.9102 4.60997 18.1602 4.84997 18.4602 4.99997L20.9702 6.23997C21.6802 6.58997 22.0302 7.39997 21.8102 8.15997L21.0102 10.84C20.9102 11.16 20.9202 11.5 21.0302 11.82L21.9202 14.47C22.1702 15.22 21.8502 16.04 21.1502 16.42Z" fill="#CADE00"/>
<path id="Vector_2" d="M10.22 9.55002C10.22 9.90002 10.16 10.21 10.04 10.47C9.92 10.73 9.76 10.95 9.56 11.13C9.35 11.31 9.12 11.44 8.84 11.53C8.57 11.62 8.28 11.66 7.99 11.66C7.7 11.66 7.39 11.62 7.13 11.53C6.86 11.44 6.63 11.31 6.42 11.13C6.22 10.95 6.05 10.73 5.93 10.47C5.81 10.21 5.75 9.90002 5.75 9.55002V8.02002C5.75 7.67002 5.81 7.36002 5.93 7.10002C6.05 6.84002 6.21 6.62002 6.42 6.44002C6.63 6.26002 6.86 6.13002 7.13 6.04002C7.4 5.95002 7.68 5.90002 7.99 5.90002C8.3 5.90002 8.57 5.95002 8.84 6.04002C9.11 6.13002 9.35 6.27002 9.56 6.44002C9.76 6.62002 9.93 6.83002 10.04 7.10002C10.16 7.36002 10.22 7.67002 10.22 8.02002V9.55002ZM8.78 8.07002C8.78 7.77002 8.71 7.55002 8.57 7.40002C8.43 7.25002 8.23 7.18002 7.98 7.18002C7.45 7.18002 7.18 7.48002 7.18 8.07002V9.49002C7.18 9.79002 7.25 10.02 7.39 10.16C7.53 10.31 7.73 10.38 7.98 10.38C8.23 10.38 8.42 10.31 8.57 10.16C8.71 10.01 8.78 9.79002 8.78 9.49002V8.07002ZM9.69 17H8.12L13.32 5.99002H14.89L9.69 17ZM17.24 14.98C17.24 15.33 17.18 15.64 17.06 15.9C16.94 16.16 16.78 16.38 16.57 16.56C16.36 16.74 16.13 16.87 15.85 16.96C15.58 17.05 15.29 17.09 14.99 17.09C14.69 17.09 14.39 17.05 14.13 16.96C13.87 16.87 13.63 16.74 13.42 16.56C13.22 16.38 13.05 16.16 12.94 15.9C12.82 15.64 12.76 15.33 12.76 14.98V13.45C12.76 13.1 12.82 12.79 12.94 12.53C13.06 12.27 13.22 12.05 13.42 11.87C13.63 11.7 13.86 11.56 14.13 11.47C14.4 11.38 14.68 11.33 14.99 11.33C15.3 11.33 15.57 11.38 15.85 11.47C16.12 11.56 16.36 11.7 16.57 11.87C16.78 12.05 16.94 12.26 17.06 12.53C17.18 12.79 17.24 13.1 17.24 13.45V14.98ZM15.8 13.51C15.8 13.21 15.73 12.99 15.59 12.84C15.45 12.69 15.25 12.62 15 12.62C14.47 12.62 14.2 12.91 14.2 13.5V14.91C14.2 15.5 14.47 15.8 15 15.8C15.25 15.8 15.44 15.73 15.59 15.58C15.74 15.43 15.8 15.21 15.8 14.91V13.5V13.51Z" fill="#1E293B"/>
</g>
</svg>
