<svg width="20" height="20" viewBox="0 0 20 20" fill="none" xmlns="http://www.w3.org/2000/svg">
<g id="Frame">
<g id="Group">
<g id="Group_2">
<path id="Vector" d="M18.2335 8.5956H15.7022C15.621 7.24196 15.1066 6.01015 14.2944 5.03553L16.0948 3.2352C16.3384 2.99154 16.3384 2.58545 16.0948 2.34179C15.8511 2.09814 15.445 2.09814 15.2014 2.34179L13.401 4.14213C12.467 3.37056 11.3029 2.86971 10.0305 2.74789V0.622674C10.0305 0.270728 9.77327 0 9.42132 0C9.06938 0 8.81219 0.284264 8.81219 0.622674V2.74789C7.53977 2.86971 6.38917 3.37056 5.45516 4.14213L3.65482 2.34179C3.41117 2.09814 3.00508 2.09814 2.76142 2.34179C2.51777 2.58545 2.51777 2.99154 2.76142 3.2352L4.56176 5.03553C3.74958 6.02369 3.2352 7.2555 3.15398 8.5956H0.636211C0.284265 8.5956 0 8.85279 0 9.20474C0 9.55669 0.284265 9.81388 0.636211 9.81388H3.19459C3.34349 11.0051 3.84433 12.1015 4.56176 12.9814L2.76142 14.7817C2.51777 15.0254 2.51777 15.4315 2.76142 15.6751C3.00508 15.9188 3.41117 15.9188 3.65482 15.6751L5.45516 13.8748C6.38917 14.6464 7.5533 15.1472 8.81219 15.269V18.2335C8.81219 18.5855 9.06938 18.8562 9.42132 18.8562C9.77327 18.8562 10.0305 18.5719 10.0305 18.2335V15.269C11.3029 15.1472 12.467 14.6464 13.401 13.8748L15.2014 15.6751C15.445 15.9188 15.8376 15.9188 16.0948 15.6751C16.3384 15.4315 16.3384 15.0254 16.0948 14.7817L14.2944 12.9814C15.0254 12.1015 15.5127 11.0051 15.6616 9.81388H18.2335C18.5855 9.81388 18.8562 9.55669 18.8562 9.20474C18.8562 8.85279 18.5855 8.5956 18.2335 8.5956ZM9.43486 14.0372C6.6599 14.0372 4.41286 11.7767 4.41286 9.01523C4.41286 6.24027 6.67344 3.99323 9.43486 3.99323C12.1963 3.99323 14.4569 6.25381 14.4569 9.01523C14.4569 11.7767 12.2098 14.0372 9.43486 14.0372Z" fill="#1E293B"/>
</g>
<path id="Vector_2" d="M13.0084 9.24537C12.6158 9.80036 11.8578 9.93573 11.2892 9.54317C10.7342 9.15062 10.5989 8.37904 10.9914 7.82405C11.3705 7.2826 12.1826 7.14723 12.7106 7.52625C13.2791 7.91881 13.4144 8.69038 13.0084 9.24537Z" fill="#1E293B"/>
<path id="Vector_3" d="M10.5045 6.72755C10.1119 7.28254 9.35386 7.4179 8.78533 7.02535C8.23034 6.63279 8.09498 5.86122 8.48753 5.30623C8.86655 4.76477 9.67873 4.62941 10.2067 5.00843C10.7752 5.40098 10.897 6.17256 10.5045 6.72755Z" fill="#1E293B"/>
<path id="Vector_4" d="M9.24566 9.70557C8.85311 10.2606 8.08153 10.3959 7.52654 10.0034C6.97155 9.61082 6.83619 8.83925 7.22874 8.28426C7.60776 7.7428 8.41994 7.60744 8.94786 7.98646C9.51639 8.37901 9.63822 9.15058 9.24566 9.70557Z" fill="#1E293B"/>
</g>
</g>
</svg>
