<svg width="20" height="20" viewBox="0 0 20 20" fill="none" xmlns="http://www.w3.org/2000/svg">
<g id="Frame">
<path id="Vector" d="M10 2.5L8.40667 7.34417C8.32512 7.59209 8.1865 7.8174 8.00195 8.00195C7.8174 8.1865 7.59209 8.32512 7.34417 8.40667L2.5 10L7.34417 11.5933C7.59209 11.6749 7.8174 11.8135 8.00195 11.9981C8.1865 12.1826 8.32512 12.4079 8.40667 12.6558L10 17.5L11.5933 12.6558C11.6749 12.4079 11.8135 12.1826 11.9981 11.9981C12.1826 11.8135 12.4079 11.6749 12.6558 11.5933L17.5 10L12.6558 8.40667C12.4079 8.32512 12.1826 8.1865 11.9981 8.00195C11.8135 7.8174 11.6749 7.59209 11.5933 7.34417L10 2.5Z" stroke="#1E293B" stroke-width="1.5" stroke-linecap="round" stroke-linejoin="round"/>
<path id="Vector_2" d="M4.16699 2.5V5.83333" stroke="#1E293B" stroke-width="1.5" stroke-linecap="round" stroke-linejoin="round"/>
<path id="Vector_3" d="M15.833 14.1667V17.5001" stroke="#1E293B" stroke-width="1.5" stroke-linecap="round" stroke-linejoin="round"/>
<path id="Vector_4" d="M2.5 4.16663H5.83333" stroke="#1E293B" stroke-width="1.5" stroke-linecap="round" stroke-linejoin="round"/>
<path id="Vector_5" d="M14.167 15.8333H17.5003" stroke="#1E293B" stroke-width="1.5" stroke-linecap="round" stroke-linejoin="round"/>
</g>
</svg>
